<svg width="10" height="10" viewBox="0 0 10 10" fill="none" xmlns="http://www.w3.org/2000/svg">
<path d="M9.2539 8.06093L6.19296 4.99999L9.2539 1.93905C9.58437 1.60858 9.58437 1.07655 9.2539 0.746082C8.92343 0.415613 8.3914 0.415613 8.06093 0.746082L4.99999 3.80702L1.93905 0.746082C1.60858 0.415613 1.07655 0.415613 0.746082 0.746082C0.415613 1.07655 0.415613 1.60858 0.746082 1.93905L3.80702 4.99999L0.746082 8.06093C0.415613 8.3914 0.415613 8.92343 0.746082 9.2539C1.07655 9.58437 1.60858 9.58437 1.93905 9.2539L4.99999 6.19296L8.06093 9.2539C8.3914 9.58437 8.92343 9.58437 9.2539 9.2539C9.58203 8.92343 9.58203 8.38906 9.2539 8.06093Z" fill="#BDB3A4"/>
</svg>
